<svg height="64" style="fill-rule:evenodd;clip-rule:evenodd" width="64" xml:space="preserve" xmlns="http://www.w3.org/2000/svg"><defs><style >.fil0{fill:#0e6096}</style></defs><g id="Layer_x0020_1"><g id="_740334016"><circle class="fil0" cx="22.19" cy="51.1" r="1.97"/><circle class="fil0" cx="32.26" cy="51.1" r="1.97"/><circle class="fil0" cx="42.34" cy="51.1" r="1.97"/><path class="fil0" d="M10.36 44.42c-.19-.05-.39-.1-.58-.16.19.06.39.11.58.16zm-.96-.29zm-1.09-.49zm-3.3-3.3zm-.62-1.47c-.06-.19-.11-.39-.16-.59.05.2.1.4.16.59zm7.68-10.64c.1-1.5.41-2.93.91-4.28a15.54 15.54 0 0 0-.91 4.28zM31.32 14.4a7.818 7.818 0 0 1 6.51-3.47c3.96 0 7.23 2.94 7.75 6.77.48-.07.96-.1 1.45-.1 6.05 0 10.95 4.9 10.95 10.95 0 1.77-.42 3.44-1.16 4.91-.82-.43-1.76-.68-2.76-.68-.66-5.15-5.07-9.13-10.4-9.13-.64 0-1.27.06-1.89.17-1.74-4.6-5.63-8.15-10.45-9.42z"/><path d="M12.22 44.63c-4.53 0-8.2-3.67-8.2-8.2a8.2 8.2 0 0 1 8.05-8.2c.54-8.01 7.2-14.33 15.33-14.33 6.57 0 12.18 4.12 14.37 9.92a10.8 10.8 0 0 1 1.89-.17c5.33 0 9.74 3.98 10.4 9.13 3.27 0 5.92 2.66 5.92 5.93 0 3.22-2.57 5.84-5.77 5.92-14 .19-28 0-41.99 0z" style="fill:#1ab5ed"/></g></g></svg>